<svg xmlns="http://www.w3.org/2000/svg" width="44" height="28" fill="#6344c6" xmlns:v="https://vecta.io/nano"><path d="M13.232.839c1.252 0 2.376.108 3.406.33s1.898.582 2.637 1.08c.73.498 1.296 1.158 1.706 1.992.399.818.596 1.849.596 3.066 0 1.316-.301 2.415-.897 3.293s-1.484 1.597-2.667 2.154c1.607.463 2.8 1.277 3.589 2.435s1.183 2.558 1.183 4.195c0 1.326-.251 2.465-.759 3.426a6.67 6.67 0 0 1-2.065 2.366c-.868.611-1.858 1.06-2.972 1.356a13.32 13.32 0 0 1-3.416.439H.908V.839h12.319.005zm-.744 10.554c1.02 0 1.863-.242 2.534-.735.661-.483.981-1.282.981-2.376 0-.606-.109-1.109-.32-1.499-.222-.389-.518-.695-.887-.907a3.62 3.62 0 0 0-1.267-.458c-.473-.094-.971-.128-1.479-.128H6.666v6.108h5.822v-.005zm.316 11.126a7.35 7.35 0 0 0 1.612-.163c.508-.114.971-.291 1.356-.552a2.77 2.77 0 0 0 .937-1.04c.232-.439.345-1.006.345-1.696 0-1.346-.38-2.302-1.134-2.884-.754-.572-1.76-.858-3.002-.858H6.661v7.197h6.137l.005-.005zm18.189-.089c.779.759 1.903 1.144 3.362 1.144 1.05 0 1.952-.266 2.716-.794.754-.527 1.213-1.089 1.39-1.676h4.575c-.734 2.278-1.853 3.904-3.372 4.88-1.503.981-3.342 1.474-5.477 1.474-1.489 0-2.829-.242-4.037-.715-1.203-.483-2.208-1.154-3.056-2.036-.823-.882-1.464-1.927-1.923-3.155-.453-1.218-.68-2.568-.68-4.032s.237-2.736.7-3.958c.473-1.223 1.124-2.282 1.982-3.17a9.4 9.4 0 0 1 3.066-2.11c1.188-.513 2.494-.769 3.944-.769 1.602 0 3.002.311 4.205.937a8.38 8.38 0 0 1 2.953 2.509c.769 1.045 1.321 2.248 1.661 3.589s.459 2.746.36 4.21H29.706c0 1.494.508 2.913 1.287 3.673zm5.97-9.943c-.616-.685-1.661-1.055-2.938-1.055-.828 0-1.518.138-2.065.424-.537.281-.981.631-1.316 1.045a3.72 3.72 0 0 0-.695 1.331c-.133.458-.212.877-.237 1.247h8.454c-.123-1.326-.577-2.302-1.198-2.992h-.005zm2.272-9.899H28.642v2.578h10.594V2.588z"/></svg>