<svg xmlns="http://www.w3.org/2000/svg" width="26" height="26" fill="none" xmlns:v="https://vecta.io/nano"><path d="M22.106 3.778C19.674 1.341 16.436 0 12.994 0 5.891 0 .11 5.78.11 12.884c0 2.269.592 4.486 1.718 6.442L0 26l6.831-1.793c1.88 1.027 3.999 1.567 6.158 1.567h.006C20.092 25.774 26 19.993 26 12.89c0-3.441-1.462-6.674-3.894-9.112zm-9.112 19.825a10.69 10.69 0 0 1-5.455-1.492l-.389-.232-4.051 1.062 1.079-3.952-.255-.406c-1.074-1.706-1.637-3.674-1.637-5.699C2.287 6.982 7.092 2.176 13 2.176c2.861 0 5.548 1.114 7.568 3.14s3.262 4.713 3.256 7.574c0 5.908-4.927 10.713-10.829 10.713zm5.873-8.021c-.319-.162-1.904-.94-2.2-1.045-.296-.11-.511-.162-.726.162s-.83 1.045-1.021 1.265c-.186.215-.377.244-.696.081-1.892-.946-3.134-1.689-4.382-3.83-.331-.569.331-.528.946-1.758.104-.215.052-.4-.029-.563s-.725-1.747-.992-2.391c-.261-.627-.528-.54-.725-.551-.186-.012-.4-.012-.615-.012s-.563.081-.859.4c-.296.325-1.126 1.103-1.126 2.687s1.155 3.116 1.312 3.331c.163.215 2.269 3.465 5.502 4.863 2.043.882 2.844.958 3.865.807.621-.093 1.904-.778 2.171-1.532s.267-1.399.186-1.532c-.076-.145-.29-.226-.609-.383z" fill="#4f59c0"/></svg>