<svg xmlns="http://www.w3.org/2000/svg" width="41" height="48" fill="none" xmlns:v="https://vecta.io/nano"><g clip-path="url(#A)"><path d="M20.509 13.137c-5.816 0-10.507 4.709-10.507 10.547s4.691 10.548 10.507 10.548 10.507-4.709 10.507-10.547-4.691-10.547-10.507-10.547zm0 17.405c-3.758 0-6.831-3.075-6.831-6.857s3.063-6.857 6.831-6.857 6.831 3.075 6.831 6.857-3.073 6.857-6.831 6.857zm13.387-17.836a2.45 2.45 0 1 1-4.901 0c0-1.359 1.097-2.46 2.451-2.46s2.451 1.101 2.451 2.46zm6.959 2.497c-.155-3.296-.905-6.215-3.31-8.62-2.396-2.405-5.304-3.158-8.586-3.323-3.383-.193-13.525-.193-16.908 0-3.274.156-6.182.909-8.586 3.314s-3.146 5.324-3.31 8.62c-.192 3.397-.192 13.577 0 16.973.155 3.295.905 6.215 3.31 8.62s5.304 3.158 8.586 3.323c3.383.193 13.525.193 16.908 0 3.283-.156 6.191-.909 8.587-3.323 2.396-2.405 3.146-5.324 3.31-8.62.192-3.397.192-13.568 0-16.964zm-4.371 20.608a6.93 6.93 0 0 1-3.895 3.91c-2.698 1.074-9.099.826-12.08.826s-9.391.239-12.08-.826c-1.792-.716-3.173-2.102-3.895-3.91-1.07-2.708-.823-9.134-.823-12.126s-.238-9.427.823-12.126c.713-1.799 2.094-3.185 3.895-3.911 2.698-1.074 9.099-.826 12.08-.826s9.391-.239 12.08.826c1.792.716 3.173 2.102 3.895 3.911 1.07 2.708.823 9.134.823 12.126s.247 9.428-.823 12.126z" fill="#6344c6" stroke="#6344c6" stroke-width=".027"/></g><defs><clipPath id="A"><path fill="#fff" transform="translate(0 .193)" d="M0 0h41v47H0z"/></clipPath></defs></svg>