<?xml version="1.0" encoding="UTF-8"?>
<!DOCTYPE svg PUBLIC "-//W3C//DTD SVG 1.1//EN" "http://www.w3.org/Graphics/SVG/1.1/DTD/svg11.dtd">
<svg xmlns="http://www.w3.org/2000/svg" version="1.1" width="50px" height="73px" style="shape-rendering:geometricPrecision; text-rendering:geometricPrecision; image-rendering:optimizeQuality; fill-rule:evenodd; clip-rule:evenodd" xmlns:xlink="http://www.w3.org/1999/xlink">
<g><path style="opacity:1" fill="#fdfdfd" d="M -0.5,-0.5 C 16.1667,-0.5 32.8333,-0.5 49.5,-0.5C 49.5,13.8333 49.5,28.1667 49.5,42.5C 47.9319,36.375 44.5986,31.375 39.5,27.5C 39.6659,22.4889 39.4993,17.4889 39,12.5C 31.6415,-0.338204 22.6415,-1.67154 12,8.5C 9.75195,14.6053 8.91862,20.9386 9.5,27.5C 4.52638,31.4615 1.19305,36.4615 -0.5,42.5C -0.5,28.1667 -0.5,13.8333 -0.5,-0.5 Z"/></g>
<g><path style="opacity:1" fill="#44404f" d="M 39.5,27.5 C 40.5455,38.7791 35.5455,45.4458 24.5,47.5C 13.4545,45.4458 8.45455,38.7791 9.5,27.5C 8.91862,20.9386 9.75195,14.6053 12,8.5C 22.6415,-1.67154 31.6415,-0.338204 39,12.5C 39.4993,17.4889 39.6659,22.4889 39.5,27.5 Z"/></g>
<g><path style="opacity:1" fill="#fbfafb" d="M 36.5,12.5 C 36.6657,16.8461 36.499,21.1794 36,25.5C 32.4964,23.9266 28.9964,22.5933 25.5,21.5C 24.8333,4.16667 24.1667,4.16667 23.5,21.5C 20.0635,22.9448 16.3968,23.9448 12.5,24.5C 12.5,20.5 12.5,16.5 12.5,12.5C 16.7102,3.28744 23.3769,1.12077 32.5,6C 34.7337,7.63787 36.067,9.80453 36.5,12.5 Z"/></g>
<g><path style="opacity:1" fill="#4b4756" d="M 25.5,21.5 C 24.8333,21.5 24.1667,21.5 23.5,21.5C 24.1667,4.16667 24.8333,4.16667 25.5,21.5 Z"/></g>
<g><path style="opacity:1" fill="#e5e4e7" d="M 12.5,12.5 C 12.5,16.5 12.5,20.5 12.5,24.5C 16.3968,23.9448 20.0635,22.9448 23.5,21.5C 24.1667,21.5 24.8333,21.5 25.5,21.5C 28.9964,22.5933 32.4964,23.9266 36,25.5C 36.499,21.1794 36.6657,16.8461 36.5,12.5C 37.6561,20.3225 37.8228,28.3225 37,36.5C 32.871,44.9762 26.371,47.4762 17.5,44C 14.8941,42.0616 13.0608,39.5616 12,36.5C 11.1772,28.3225 11.3439,20.3225 12.5,12.5 Z"/></g>
<g><path style="opacity:1" fill="#e6e6e8" d="M 9.5,27.5 C 8.45455,38.7791 13.4545,45.4458 24.5,47.5C 35.5455,45.4458 40.5455,38.7791 39.5,27.5C 44.5986,31.375 47.9319,36.375 49.5,42.5C 49.5,45.5 49.5,48.5 49.5,51.5C 46.947,62.387 40.2803,69.387 29.5,72.5C 26.1667,72.5 22.8333,72.5 19.5,72.5C 8.23697,69.2414 1.5703,61.9081 -0.5,50.5C -0.5,47.8333 -0.5,45.1667 -0.5,42.5C 1.19305,36.4615 4.52638,31.4615 9.5,27.5 Z"/></g>
<g><path style="opacity:1" fill="#fdfdfe" d="M -0.5,50.5 C 1.5703,61.9081 8.23697,69.2414 19.5,72.5C 12.8333,72.5 6.16667,72.5 -0.5,72.5C -0.5,65.1667 -0.5,57.8333 -0.5,50.5 Z"/></g>
<g><path style="opacity:1" fill="#fefefe" d="M 49.5,51.5 C 49.5,58.5 49.5,65.5 49.5,72.5C 42.8333,72.5 36.1667,72.5 29.5,72.5C 40.2803,69.387 46.947,62.387 49.5,51.5 Z"/></g>
</svg>
